<?xml version="1.0" encoding="UTF-8"?>
<!DOCTYPE svg PUBLIC "-//W3C//DTD SVG 1.1//EN" "http://www.w3.org/Graphics/SVG/1.1/DTD/svg11.dtd">
<!-- Creator: CorelDRAW X7 -->
<svg xmlns="http://www.w3.org/2000/svg" xml:space="preserve" width="590px" height="700px" version="1.1" style="shape-rendering:geometricPrecision; text-rendering:geometricPrecision; image-rendering:optimizeQuality; fill-rule:evenodd; clip-rule:evenodd"
viewBox="0 0 590 700"
 xmlns:xlink="http://www.w3.org/1999/xlink">
 <defs>
  <style type="text/css">
   <![CDATA[
    .fil0 {fill:white;fill-rule:nonzero;fill-opacity:0.101961}
   ]]>
  </style>
 </defs>
 <g id="Слой_x0020_1">
  <metadata id="CorelCorpID_0Corel-Layer"/>
  <path class="fil0" d="M67 254c-1,4 -5,7 -9,6 -5,-1 -7,-5 -7,-10 17,-75 64,-93 116,-113 37,-14 77,-30 106,-71 3,-4 8,-5 12,-2 3,2 4,7 2,11 -32,46 -75,62 -115,77 -47,19 -90,35 -105,102z"/>
  <path class="fil0" d="M402 362c3,1 5,4 5,8 -1,3 -5,6 -8,5 -40,-9 -68,-23 -88,-39 -25,2 -61,-6 -107,-30 -3,-1 -5,-5 -3,-8 1,-4 5,-5 9,-3 37,18 66,26 88,28 -8,-9 -13,-18 -17,-26 -4,-11 -5,-21 -4,-29 1,-10 4,-18 9,-24 9,-12 24,-18 42,-13 21,5 36,24 39,44 2,10 1,21 -3,30 -4,10 -11,18 -23,24 -3,2 -7,3 -12,5 18,11 41,21 73,28zm-109 -70c4,10 12,21 23,31 7,-1 14,-3 19,-6 9,-4 14,-10 17,-17 3,-7 4,-15 2,-23 -2,-15 -13,-30 -29,-34 -13,-3 -23,1 -29,9 -3,4 -6,10 -6,17 -1,7 0,15 3,23z"/>
  <path class="fil0" d="M479 473c-2,-4 0,-9 4,-11 4,-1 9,0 11,5l48 108c2,4 0,9 -4,11 -4,2 -9,0 -11,-4l-48 -109z"/>
  <path class="fil0" d="M397 52l91 0c5,0 8,3 8,8l0 84c0,5 -3,9 -8,9l-91 0c-4,0 -8,-4 -8,-9l0 -84c0,-5 4,-8 8,-8zm83 16l-75 0 0 68 75 0 0 -68z"/>
  <path class="fil0" d="M51 366l123 -13c4,-1 8,2 8,7 0,2 0,4 -1,6l0 0 -47 67c-3,3 -8,4 -12,2l-76 -54c-4,-2 -4,-7 -2,-11 2,-3 4,-4 7,-4zm106 5l-83 9 51 36 32 -45z"/>
  <path class="fil0" d="M126 37c9,0 16,3 22,8 5,6 9,13 9,21 0,8 -4,16 -9,21 -6,5 -13,8 -22,8 -8,0 -15,-3 -21,-8 -5,-5 -9,-13 -9,-21 0,-8 4,-15 9,-21 6,-5 13,-8 21,-8zm10 20c-2,-2 -6,-4 -10,-4 -3,0 -7,2 -9,4 -3,2 -4,6 -4,9 0,4 1,7 4,9 2,3 6,4 9,4 4,0 8,-1 10,-4 3,-2 4,-5 4,-9 0,-3 -1,-7 -4,-9z"/>
  <path class="fil0" d="M354 471c5,0 11,3 14,6 4,4 7,9 7,14 0,6 -3,11 -7,15 -3,3 -9,6 -14,6 -6,0 -11,-3 -15,-6 -4,-4 -6,-9 -6,-15 0,-5 2,-10 6,-14 4,-3 9,-6 15,-6zm7 14c-2,-1 -4,-2 -7,-2 -3,0 -5,1 -7,2 -2,2 -3,4 -3,6 0,3 1,5 3,7 2,1 4,2 7,2 3,0 5,-1 7,-2 1,-2 2,-4 2,-7 0,-2 -1,-4 -2,-6z"/>
  <path class="fil0" d="M192 576l49 -45c3,-2 6,-2 9,0l41 46c2,2 2,6 0,8l-50 45c-2,2 -6,2 -8,-1l-41 -45c-2,-2 -2,-6 0,-8zm53 -32l-40 36 33 37 40 -37 -33 -36z"/>
  <path class="fil0" d="M488 217c5,0 10,2 14,6 4,4 6,9 6,14 0,6 -2,11 -6,15 -4,3 -9,5 -14,5 -6,0 -11,-2 -15,-5 -4,-4 -6,-9 -6,-15 0,-5 2,-10 6,-14 4,-4 9,-6 15,-6zm7 14c-2,-2 -5,-3 -7,-3 -3,0 -5,1 -7,3 -2,2 -3,4 -3,6 0,3 1,5 3,7 2,1 4,2 7,2 2,0 5,-1 7,-2 1,-2 2,-4 2,-7 0,-2 -1,-4 -2,-6z"/>
  <path class="fil0" d="M541 356c0,2 3,3 5,3 2,-1 4,-3 3,-5 -8,-40 -33,-50 -61,-60 -19,-8 -41,-16 -56,-38 -1,-2 -4,-2 -6,-1 -2,1 -2,4 -1,6 17,24 39,33 60,41 25,10 48,18 56,54z"/>
  <path class="fil0" d="M154 499c2,-1 3,-3 2,-4 0,-2 -2,-3 -4,-3 -20,4 -35,12 -45,20 -14,-1 -32,4 -56,16 -2,0 -3,3 -2,4 1,2 3,3 5,2 19,-10 34,-14 45,-15 -3,4 -6,9 -8,14 -2,5 -3,10 -2,15 0,5 2,9 4,12 5,7 13,10 22,7 11,-3 19,-12 21,-23 1,-5 0,-11 -2,-16 -2,-5 -6,-9 -12,-12 -2,-1 -4,-2 -6,-3 9,-6 21,-11 38,-14zm-57 36c2,-5 6,-11 12,-16 4,0 7,1 10,3 5,2 7,5 9,9 2,4 2,8 1,12 -1,8 -7,15 -15,18 -7,1 -12,-1 -15,-5 -2,-2 -3,-5 -4,-9 0,-3 1,-7 2,-12z"/>
 </g>
</svg>
